<?xml version="1.0" encoding="utf-8"?>
<!-- Generator: Adobe Illustrator 19.1.0, SVG Export Plug-In . SVG Version: 6.00 Build 0)  -->
<svg version="1.1" id="Calque_1" xmlns="http://www.w3.org/2000/svg" xmlns:xlink="http://www.w3.org/1999/xlink" x="0px" y="0px"
	 viewBox="11 380.8 198 198" style="enable-background:new 11 380.8 198 198;" xml:space="preserve">
<path d="M131.1,465.9c7,0.7,6.9-4.7,6.9-4.7s-3.2,2.3-5.9,1.7c-1.7-0.4-2.7-0.9-2.7-0.9c7.9-0.4,5.6-5.5,5.6-5.5
	c-2,3.3-6.9,1.7-6.9,1.7c3.8-1.6,1.6-4.2,1.6-4.2c-0.7,3.2-5.7,1.9-8.7,3.1s-0.4,3.7-0.4,3.7c-0.4-1.2,4-1.1,4.5,4.8
	c0.4,5.9-4.2,6.8-4.2,6.8c-0.8-1.7-3.7-0.3-4.7,0.3c-2-0.3-2.1-1.7-2.1-1.7c0.5,0.4,0.9-0.1,0.9-0.1c-1.4-0.7-1.1-2.6-1.1-2.6
	s-0.1,0.9,1.1,1c1.2,0.1,0.7-0.8,0.7-0.8s-0.2,0.5-0.5,0.3c-1.4-0.7-0.8-3.7-0.8-3.7s0.4,2,1.9,1.9c1.1-0.1,0.7-0.8,0.7-0.8
	c-0.8,0.9-1.7-0.7-1.8-1.6c-0.2-1-0.7-2.4-0.7-2.4c2.1,2.2,2.5,0.3,2.4,0.2c-0.8,0.6-1.7-0.2-2-1.1s-1.1-1.4-1.1-1.4
	c-1.1-0.9-4.6-0.7-6.9-0.2c-2.3,0.5-0.8,2.2-0.8,2.2c1-1.5,2.4,0,2.4,0c0.9,0.1,1.3,0.4,1.4,0.7c-0.6-0.1-1.4-0.1-2.5,0.4
	c-3.4,1.4-2.4-1.1-2.4-1.1s-1.1,0.1-1,1c0,0.9,1.3,1.8,3.5,0.5c1.1-0.7,2-0.4,2.6-0.1c0,0.1,0,0.1,0,0.1c-4-0.3-2.7,1.2-2.7,1.2
	c0.5-0.8,2.2-0.1,2.2-0.1s0.3,0.5,0.4,1.1c-1,1-1.6,0.3-1.6,0.3c-0.5,0.4-0.2,0.8,0.1,0.8c0.4,0.1,0.6,0.1,0.6,0.1s-0.6,0.5-0.9,1.4
	c-0.4,1.6-2.9,2.4-2.9,2.4c0.7,0.6,1.4,0.2,1.4,0.2c-0.1,0.9-0.8,1.5-1.5,1.7c-1.2-0.6-3.6-1.6-4.4-0.1c0,0-4.7-0.9-4.2-6.8
	c0.4-5.9,4.9-6,4.5-4.8c0,0,2.6-2.4-0.4-3.7c-3-1.2-8,0.1-8.7-3.1c0,0-2.2,2.7,1.6,4.2c0,0-4.9,1.7-6.9-1.7c0,0-2.3,5,5.6,5.5
	c0,0-1,0.5-2.7,0.9c-2.7,0.7-5.9-1.7-5.9-1.7s-0.1,5.3,6.9,4.7c0,0-2.6,3.2-6.1,1.7c0,0,0,3.9,6.7,3.1c0,0-2.7,3.3-5.5,2.8
	c0,0,1.1,4.5,6.5,1.6c0,0-1,4.5-5.2,5c0,0,2.9,5.5,7.9-1.7c0,0-2.1,8.8-6.1,9.9c0,0,2.2,3.6,5.2,0.4c2.5-2.6,4.7-9,4.7-9
	s1.1,5.9-2.3,8.2c0,0,3,2.5,5.2-1.2c1.3-2.2,1-7.7,1-7.7s1.8,4,0.2,6.1c0,0,3.5-0.7,3.6-3.2c0-1,0-2.8-0.1-4.4c2.7,3,1.4,6.5,1,7.4
	c-1.7,0.7-4.3,2.1-5.4,4c0,0,0.3,0.1,0.7,0.3c-1.4,1.1-3.8,2.8-5.4,2.5c-1.8-0.3-2.1-1.6-2.1-1.6s-3.4-1-3.4,2.4c0,0,0.3-1,1.1-0.9
	c0,0,1.2,0.7,1.7-0.2c0,0,1.3,0.6,1.6,1.2c0,0-3.5,0.2-4.7,1.9c0,0-0.7,1.1,0.1,2.5c0,0-0.2-1.1,0.6-1.4c0,0,1.6,0.2,1.6-1.2
	c0,0,0.6-0.6,1.4-0.1c0.8,0.4,1.4-0.6,1.4-0.6s-1.6,2.5-1.3,4.3c0,0.1,0,0.2,0,0.2c0.4,1.8,0.6,1.4,1.2,1.5c0,0-0.6-0.1-0.4-1.1
	c0,0,1.2-1.3,0.2-2c0,0-0.1-0.8,0.5-1.1c1-0.4,1.4-1.2,1.4-1.6c0,0,1.4,0.8,1.7,0.4s0.6-0.4,0.9-0.1c0.3,0.4,0.7,0.4,1,0.4
	c0,0,0.6,0.4,0.4,1.2c0,0,1.2-1.4-0.1-2.6c0,0-2.1,0.2-3.2-0.5c0,0,2.5-1.6,4-1.7c0.5-0.1,1-0.3,1.5-0.5c0.3,0.4,0.4,0.9,0.3,1.6
	c0,0,3.4-0.8,4.6-5c0.2,0.6,0.5,1.5,0.5,2.6c0,3.1-2.5,2.3-2.5,2.3c-0.4,2.1,1.8,2,1.8,2s-0.9,1.9-3.2,2.1s-1-1.6-1-1.6
	c-3.2-0.2-1.5,2.6-1.5,2.6s-2.8-0.7-3.8,1.1c-1.4,2.5,1.3,3.3,1.3,3.3c-1.4-1.3-0.2-2.6,0.8-2.1s1.5,0,1.5,0
	c-0.8,3.6,2.3,2.7,2.3,2.7c-1.2-1.1,0-2,1.8-3c2-1.2,2.9-3.3,2.9-3.3c0,5.8-3.8,5.3-3.8,5.3c-0.1,3.6,3.2,1.5,3.2,1.5
	c0,2.2,1.5,2.8,1.5,2.8s1.5-0.7,1.5-2.8c0,0,3.3,2.1,3.2-1.5c0,0-3.8,0.5-3.8-5.3c0,0,0.9,2.1,2.9,3.3c1.8,1.1,3,1.9,1.8,3
	c0,0,3.1,0.9,2.3-2.7c0,0,0.5,0.5,1.5,0s2.3,0.8,0.8,2.1c0,0,2.7-0.7,1.3-3.3c-1-1.8-3.8-1.1-3.8-1.1s1.7-2.8-1.5-2.6
	c0,0,1.3,1.8-1,1.6c-2.3-0.2-3.2-2.1-3.2-2.1s2.3,0.1,1.8-2c0,0-2.5,0.8-2.5-2.3c0-1.2,0.2-2,0.5-2.6c1.2,4.2,4.6,5,4.6,5
	c-0.1-0.6,0.1-1.1,0.3-1.6c0.4,0.3,0.9,0.5,1.5,0.5c1.6,0.2,4,1.7,4,1.7c-1.1,0.7-3.2,0.5-3.2,0.5c-1.3,1.2-0.1,2.6-0.1,2.6
	c-0.2-0.7,0.4-1.2,0.4-1.2c0.3,0,0.7-0.1,1-0.4c0.3-0.4,0.6-0.3,0.9,0.1c0.3,0.4,1.7-0.4,1.7-0.4c0,0.4,0.4,1.2,1.4,1.6
	c0.6,0.3,0.5,1.1,0.5,1.1c-1,0.7,0.2,2,0.2,2c0.1,1-0.4,1.1-0.4,1.1c0.6-0.1,0.7,0.3,1.2-1.5c0-0.1,0-0.2,0-0.2
	c0.2-1.8-1.4-4.3-1.4-4.3s0.6,1,1.4,0.6c0.8-0.4,1.4,0.1,1.4,0.1c0,1.5,1.6,1.2,1.6,1.2c0.7,0.3,0.6,1.4,0.6,1.4
	c0.8-1.4,0.1-2.5,0.1-2.5c-1.1-1.7-4.7-1.9-4.7-1.9c0.2-0.6,1.6-1.2,1.6-1.2c0.5,0.9,1.7,0.2,1.7,0.2c0.8-0.1,1.1,0.9,1.1,0.9
	c0-3.4-3.4-2.4-3.4-2.4s-0.3,1.3-2.1,1.6c-1.5,0.3-3.9-1.4-5.4-2.5c0.4-0.2,0.7-0.3,0.7-0.3c-1-1.9-3.7-3.3-5.4-4
	c-0.4-0.9-1.7-4.4,1-7.4c-0.1,1.7-0.1,3.4-0.1,4.4c0.1,2.6,3.6,3.2,3.6,3.2c-1.6-2.1,0.2-6.1,0.2-6.1s-0.3,5.5,1,7.7
	c2.2,3.7,5.2,1.2,5.2,1.2c-3.5-2.3-2.3-8.2-2.3-8.2s2.2,6.5,4.7,9c3,3.1,5.2-0.4,5.2-0.4c-4-1.1-6.1-9.9-6.1-9.9
	c5,7.1,7.9,1.7,7.9,1.7c-4.2-0.6-5.2-5-5.2-5c5.3,2.9,6.5-1.6,6.5-1.6c-2.8,0.6-5.5-2.8-5.5-2.8c6.7,0.8,6.7-3.1,6.7-3.1
	C133.7,469.1,131.1,465.9,131.1,465.9"/>
<path d="M110.9,458.5c1.1,0,2.1,0.2,2.1,0.2l3-3.5c0,0-0.9-0.7-1.1,0.2c0,0-0.5-0.7-1.1-0.1c-0.4,0.4,0,0.8-0.4,1.1
	c-0.4,0.4-1.2,0.3-1.6,0c-0.5-0.3-0.4-1.1,0.6-1.1c0,0,0.2-0.9-0.9-0.6c0,0,0.1-0.9-0.5-0.9c-0.7,0-0.5,0.9-0.5,0.9
	c-1.1-0.3-0.9,0.6-0.9,0.6c1,0.1,1.1,0.8,0.6,1.1c-0.4,0.3-1.2,0.3-1.6,0c-0.4-0.4,0-0.8-0.4-1.1c-0.6-0.6-1.1,0.1-1.1,0.1
	c-0.2-0.9-1.1-0.2-1.1-0.2l3,3.5C108.8,458.7,109.8,458.5,110.9,458.5"/>
<path d="M73.8,422.8L67,410.5l5.1-2.8c1.1-0.6,2.1-0.8,3.1-0.5s1.8,0.9,2.3,1.9s0.5,2-0.2,3.1c0.6-0.1,1.3,0.1,1.9,0.3
	c0.6,0.3,1.2,0.8,1.6,1.5c1.4,2.5,0.6,4.6-2.4,6.3L73.8,422.8 M71.8,414.4l2.7-1.5c0.6-0.3,1-0.7,1.1-1.1c0.2-0.4,0.1-0.9-0.2-1.4
	s-0.7-0.8-1.1-0.9c-0.5-0.1-1,0-1.6,0.3l-2.7,1.5L71.8,414.4 M74.8,419.7l2.2-1.2c1.2-0.6,1.8-1.2,2-1.7s0.1-1.1-0.3-1.7
	c-0.4-0.7-0.8-1-1.4-1c-0.6,0-1.3,0.3-2.3,0.8l-2.2,1.2L74.8,419.7"/>
<path d="M94.7,409l-1.4-9.4l2.3-0.4l1.4,9.3c0.1,0.9,0.5,1.5,1,1.9c0.5,0.4,1.3,0.6,2.2,0.4c0.9-0.1,1.6-0.5,2-1.1
	c0.4-0.6,0.5-1.3,0.4-2.1l-1.4-9.3l2.3-0.4l1.4,9.4c0.2,1.5-0.1,2.7-0.9,3.8c-0.8,1-2,1.6-3.6,1.9c-1.6,0.2-2.9,0-3.9-0.7
	C95.6,411.6,95,410.5,94.7,409"/>
<path d="M119.9,412.6l2.1-13.9l2.3,0.4l-2.1,13.9L119.9,412.6"/>
<path d="M136.3,417l6-12.7l2.1,1l-5.1,10.7l5.3,2.5l-0.9,2L136.3,417"/>
<path d="M155.1,428.6l8-8.8L160,417l1.5-1.6l8,7.2l-1.5,1.6l-3.1-2.8l-8,8.8L155.1,428.6"/>
<path d="M175.3,458.9l13.1-5.8l0.5,2.3l-9.2,4.1l10.4,1l0.3,1.3l-8.9,5.5l10.1-0.4l0.5,2.3l-14.3,0.5l-0.6-2.4l8.7-5.3l-10.1-0.9
	L175.3,458.9"/>
<path d="M178,485.9l14,1.5l-0.3,2.4l-14-1.5L178,485.9"/>
<path d="M173.4,505.1l10.9,4.7l1.6-3.9l2,0.9l-4.2,9.9l-2-0.9l1.6-3.8l-10.9-4.7L173.4,505.1"/>
<path d="M163.7,521.9l10.3,9.6l-1.6,1.7l-4.3-3.9l-3.6,3.9l4.3,3.9l-1.6,1.7l-10.3-9.6l1.6-1.7l4.6,4.2l3.6-3.9l-4.6-4.2
	L163.7,521.9"/>
<path d="M124.2,549.8c0.1,0.6,0.5,1,1,1.2c0.5,0.2,1.6,0.4,3.2,0.5c1.6,0.1,2.8,0.4,3.5,0.9c0.8,0.5,1.2,1.2,1.5,2.2
	c0.2,1,0,1.9-0.6,2.9c-0.6,0.9-1.6,1.5-2.9,1.9c-1.3,0.3-2.5,0.3-3.6-0.1c-1.1-0.4-1.9-1.2-2.4-2.4l2.2-1.1c0.3,0.6,0.8,1.1,1.3,1.4
	s1.2,0.3,1.9,0.1c0.8-0.2,1.3-0.5,1.6-0.9s0.4-0.8,0.3-1.3s-0.4-0.8-0.9-0.9c-0.5-0.2-1.5-0.3-3.2-0.5c-1.7-0.2-2.9-0.5-3.6-0.9
	c-0.7-0.5-1.2-1.2-1.5-2.4c-0.3-1.1,0-2.2,0.7-3.2s1.9-1.7,3.4-2c1.5-0.4,2.8-0.2,3.9,0.4c1.1,0.6,2,1.7,2.6,3.3l-2.2,1.1
	c-0.5-1.1-1-1.9-1.5-2.3c-0.6-0.4-1.3-0.5-2.2-0.3c-0.9,0.2-1.6,0.5-2,1C124.2,548.8,124,549.3,124.2,549.8"/>
<path d="M107.8,547.3l-1.4,14l-8.7-0.9l0.2-2.2l6.3,0.7l0.4-3.6l-5.8-0.6l0.2-2.1l5.8,0.6l0.4-3.9l-6.3-0.7l0.2-2.2L107.8,547.3"/>
<path d="M85.8,542.9l-6.5,12.5l-2.4-1.3l0.8-10.6l-8.2,6.8l-2.4-1.3l6.5-12.5l2.1,1.1l-4.4,8.6l8.2-6.6l0.5,0.3l-0.7,10.5h0.1
	l4.4-8.6L85.8,542.9"/>
<path d="M62.5,527.3l-10.6,9.2l-3.7-4.2c-0.9-1.1-1.4-2.2-1.4-3.4c0-1.2,0.5-2.2,1.6-3.1c1-0.9,2.1-1.3,3.3-1.2
	c1.1,0.1,2.2,0.7,3.2,1.8l2.1,2.4l3.9-3.4L62.5,527.3 M55.4,530.4l-2.1-2.4c-0.5-0.5-1-0.8-1.6-0.9c-0.6-0.1-1.2,0.1-1.7,0.6
	c-0.6,0.5-0.8,1-0.8,1.6c0,0.6,0.3,1.1,0.7,1.7l2.1,2.4L55.4,530.4"/>
<path d="M49.3,508.3l-13,5.3l-0.9-2.2l11-4.5l-2.2-5.5l2-0.8L49.3,508.3"/>
<path d="M43.5,487.6l-14,1.4l-0.2-2.4l14-1.4L43.5,487.6"/>
<path d="M44.2,461.7c0.8,1.2,1,2.5,0.6,4.2c-0.3,1.6-1.2,2.8-2.7,3.7c-1.4,0.8-3.3,1-5.7,0.5c-2.3-0.5-4-1.4-5-2.8s-1.3-2.8-1-4.4
	c0.3-1.5,1-2.7,2.1-3.4c1.1-0.8,2.4-1.1,3.9-0.9l-0.1,2.4c-2.2-0.1-3.4,0.7-3.7,2.3c-0.2,1,0,1.9,0.7,2.8c0.7,0.8,1.9,1.4,3.6,1.8
	c1.7,0.4,3,0.3,4-0.2s1.6-1.2,1.8-2.3c0.4-1.7-0.6-3-2.9-3.7l1-2.2C42.3,459.7,43.4,460.5,44.2,461.7"/>
<path d="M50.9,447.7l-12-7.4l4.6-7.5l1.9,1.1l-3.3,5.4l3.1,1.9l3.1-5l1.8,1.1l-3.1,5l3.4,2.1l3.3-5.4l1.9,1.1L50.9,447.7"/>
</svg>
